<?xml version="1.0" encoding="utf-8"?>
<!-- Generator: Adobe Illustrator 23.1.1, SVG Export Plug-In . SVG Version: 6.00 Build 0)  -->
<svg version="1.1" id="Layer_1" xmlns="http://www.w3.org/2000/svg" xmlns:xlink="http://www.w3.org/1999/xlink" x="0px" y="0px"
	 viewBox="0 0 330 58" style="enable-background:new 0 0 330 58;" xml:space="preserve">
<style type="text/css">
	.st0{fill:#FFFFFF;}
</style>
<g>
	<path d="M2.1,15.6h8.8c5.4,0,8.7,3,8.7,8.4c0,4.8-3.3,8.8-10.7,8.8H5.3v9.7H2.1V15.6z M5.3,30.2h3.9c4.2,0,7.2-1.7,7.2-6
		c0-4.1-2-6.1-6.3-6.1H5.3V30.2z"/>
	<path d="M26.1,15.6h3.1v27h-3.1V15.6z"/>
	<path d="M38.2,15.6h3.1v24.3h11.7v2.7H38.2V15.6z"/>
	<path d="M58.4,15.6h15.1v2.6h-12v9.6h11.1v2.6H61.5v9.6h12.9v2.6h-16V15.6z"/>
	<path d="M79.3,41.1l1-2.6c2,1,4,1.7,6.6,1.7c3,0,6.3-1.1,6.3-4.6c0-6.7-13.2-4.9-13.2-13.8c0-4.3,3.7-6.7,8-6.7
		c3.1,0,5,0.6,6.6,1.5l-1,2.4c-1.8-0.8-3.5-1.3-5.6-1.3c-2.8,0-5.1,1.2-5.1,4c0,6.1,13.4,5.1,13.4,13.6c0,5.1-4.3,7.6-9.5,7.6
		C83.5,43,80.9,42.1,79.3,41.1z"/>
	<path d="M108.7,18.2h-9.2v-2.7H121v2.7h-9.2v24.3h-3.1V18.2z"/>
	<path d="M126.3,15.6h8.8c5.1,0,8.7,2.4,8.7,7.9c0,3.2-1.5,6-5.1,7.4l8.3,11.7h-3.9l-7.5-10.9c-0.7,0.1-1.8,0.2-2.6,0.2h-3.7v10.7
		h-3.2V15.6z M133.4,29.2c4.2,0,7.2-1.3,7.2-5.5c0-4.1-2.1-5.6-6.3-5.6h-4.8v11.1H133.4z"/>
	<path d="M153.7,15.6h15.1v2.6h-12v9.6h11.1v2.6h-11.1v9.6h12.9v2.6h-16V15.6z"/>
	<path d="M176.8,15.6h7.3c8.7,0,15.1,4.1,15.1,13.4c0,9.5-5.8,13.6-14.8,13.6h-7.5V15.6z M184.7,39.9c7,0,11.2-3.5,11.2-10.6
		c0-7.6-4.8-11.2-11.9-11.2h-4v21.8H184.7z"/>
	<path d="M206.5,15.6h15.1v2.6h-12v9.6h11.1v2.6h-11.1v9.6h12.9v2.6h-16V15.6z"/>
	<path d="M235.2,18.2H226v-2.7h21.6v2.7h-9.2v24.3h-3.1V18.2z"/>
</g>
<g>
	<path class="st0" d="M271.1,46.7c4.6-4,17.1-12.8,17.1-18.2c0-4.8-2.5-6.3-6.5-6.3c-3.3,0-6.5,1.4-7.7,2.1l-1.5-3.4
		c1.3-1,5.2-2.7,9.5-2.7c8.4,0,10.9,4.7,10.9,10c0,7-10.2,14.4-15.6,18.3h17.2v3.8h-23.2V46.7z"/>
</g>
<g>
	<path class="st0" d="M302.1,40c0-6.1,4.8-9.2,9.7-11.9c-4.3-2.7-8-5.6-8-10.5c0-6.1,4.8-10,12.5-10c7.7,0,11.6,5,11.6,9.6
		c0,5.2-4.1,8.1-8.5,10.8c5,2.8,10,5.7,10,11.4c0,6.9-5.3,11.2-13.8,11.2C307.5,50.7,302.1,46.5,302.1,40z M324.6,39.2
		c0-4.1-4.4-6.6-9.2-9.2c-4.5,2.5-8.6,5.2-8.6,9.6c0,4.6,3.8,7.2,9.1,7.2C321,46.8,324.6,44.5,324.6,39.2z M323.2,17.8
		c0-3.4-1.9-6.5-7-6.5s-7.8,2.6-7.8,6.5c0,3.7,3.3,6.1,7.3,8.4C319.8,24,323.2,21.6,323.2,17.8z"/>
</g>
<rect x="2" y="2.6" class="st0" width="246" height="1.2"/>
<rect x="2" y="55" class="st0" width="246" height="1.2"/>
</svg>
